<svg width="30" height="28" viewBox="0 0 30 28" fill="none" xmlns="http://www.w3.org/2000/svg">
<path d="M18.4783 7.19109H11.1556L16.0883 2.05201C16.5459 1.57528 16.208 0.782654 15.5472 0.782654H11.4753C11.2711 0.782654 11.0757 0.865951 10.9342 1.0133L1.60969 10.7281C1.15211 11.2048 1.48998 11.9974 2.15078 11.9974H28.8587C29.2729 11.9974 29.6087 11.6616 29.6087 11.2474V7.94109C29.6087 7.52687 29.2729 7.19109 28.8587 7.19109H21.9565" stroke="#E5E5E5" stroke-width="0.75" stroke-linecap="round"/>
<path d="M11.0092 20.8089H18.8444L13.9117 25.948C13.4542 26.4248 13.792 27.2174 14.4528 27.2174H18.5247C18.7289 27.2174 18.9243 27.1341 19.0658 26.9867L28.3903 17.272C28.8479 16.7952 28.51 16.0026 27.8492 16.0026H15H13.6087H12.2174H1.14133C0.727116 16.0026 0.391329 16.3384 0.391329 16.7526V20.0589C0.391329 20.4732 0.727115 20.8089 1.14133 20.8089H8.04347" stroke="#E5E5E5" stroke-width="0.75" stroke-linecap="round"/>
</svg>
