<svg width="19" height="23" viewBox="0 0 19 23" fill="none" xmlns="http://www.w3.org/2000/svg">
<path d="M6.66315 19.4156C6.66315 19.4973 6.66315 19.5381 6.66315 19.6197C6.66315 21.2111 7.92814 22.4761 9.51958 22.4761C11.111 22.4761 12.376 21.2111 12.376 19.6197C12.376 19.5381 12.376 19.4973 12.376 19.4156H6.66315Z" fill="white" stroke="black" stroke-miterlimit="10" stroke-linecap="round"/>
<path d="M17.3138 19.4156H1.68501C1.44018 19.4156 1.31776 19.1708 1.44018 18.9667L3.03162 16.4368C3.15404 16.2735 3.19484 16.0695 3.19484 15.9063V10.2342C3.19484 7.41858 5.07193 5.01102 7.60192 4.19489C7.43869 3.95006 7.35708 3.66441 7.35708 3.37877C7.31627 2.35861 8.1732 1.46088 9.19336 1.46088C10.2135 1.46088 11.0296 2.277 11.0296 3.29716C11.0296 3.5828 10.9888 3.82764 10.8664 4.07247C12.0498 4.31731 13.1516 4.92941 13.9677 5.78634C15.1103 6.92891 15.804 8.52035 15.804 10.275V16.1919C15.804 16.396 15.8856 16.6 15.9672 16.7632L17.5178 19.0076C17.6811 19.13 17.5586 19.4156 17.3138 19.4156Z" fill="white" stroke="black" stroke-miterlimit="10" stroke-linecap="round"/>
</svg>
