<svg width="21" height="20" viewBox="0 0 21 20" fill="none" xmlns="http://www.w3.org/2000/svg">
<path d="M13.7655 14.0565H8.03217H5.49884H2.19884C1.26551 14.0565 0.49884 13.3565 0.49884 12.4898V2.98979C0.49884 2.12313 1.26551 1.42313 2.19884 1.42313H18.7655C19.6988 1.42313 20.4655 2.12313 20.4655 2.98979V12.4898C20.4655 13.3565 19.6988 14.0565 18.7655 14.0565L14.4988 18.5565L13.3655 15.9231" fill="white"/>
<path d="M13.7655 14.0565H8.03217H5.49884H2.19884C1.26551 14.0565 0.49884 13.3565 0.49884 12.4898V2.98979C0.49884 2.12313 1.26551 1.42313 2.19884 1.42313H18.7655C19.6988 1.42313 20.4655 2.12313 20.4655 2.98979V12.4898C20.4655 13.3565 19.6988 14.0565 18.7655 14.0565L14.4988 18.5565L13.3655 15.9231" stroke="black" stroke-miterlimit="10" stroke-linecap="round"/>
<path d="M5.79919 8.85666C6.35148 8.85666 6.79919 8.40894 6.79919 7.85666C6.79919 7.30437 6.35148 6.85666 5.79919 6.85666C5.24691 6.85666 4.79919 7.30437 4.79919 7.85666C4.79919 8.40894 5.24691 8.85666 5.79919 8.85666Z" fill="black"/>
<path d="M10.6332 8.85666C11.1855 8.85666 11.6332 8.40894 11.6332 7.85666C11.6332 7.30437 11.1855 6.85666 10.6332 6.85666C10.0809 6.85666 9.63318 7.30437 9.63318 7.85666C9.63318 8.40894 10.0809 8.85666 10.6332 8.85666Z" fill="black"/>
<path d="M15.5008 8.85666C16.0531 8.85666 16.5008 8.40894 16.5008 7.85666C16.5008 7.30437 16.0531 6.85666 15.5008 6.85666C14.9485 6.85666 14.5008 7.30437 14.5008 7.85666C14.5008 8.40894 14.9485 8.85666 15.5008 8.85666Z" fill="black"/>
</svg>
