<svg width="24" height="24" viewBox="0 0 24 24" fill="none" xmlns="http://www.w3.org/2000/svg">
<path d="M10.8489 1.45335C11.5441 1.37625 12.2429 1.36822 12.9378 1.42894L13.2357 1.45921C13.2832 1.46481 13.3194 1.49704 13.3333 1.53831L13.3392 1.58226V1.58324C13.2726 2.75578 13.9057 3.85377 14.9349 4.38597L15.1458 4.48558H15.1468C16.1934 4.92226 17.503 4.66405 18.3245 3.89671L18.4818 3.73656C18.5129 3.70213 18.5609 3.69106 18.6028 3.70335L18.6419 3.72386H18.6429C19.1825 4.15616 19.6829 4.64718 20.1331 5.18675L20.3226 5.42015V5.42113C20.3516 5.45787 20.3561 5.50608 20.3372 5.54515L20.3109 5.58031H20.3099C19.4552 6.36428 19.1366 7.57924 19.4847 8.66917L19.5638 8.88597C20.0216 10.0031 21.1114 10.719 22.3275 10.719C22.3696 10.719 22.4386 10.7386 22.4964 10.7805C22.555 10.8231 22.548 10.8463 22.5452 10.8225V10.8215C22.6239 11.5254 22.6322 12.2352 22.5706 12.9358L22.5403 13.2346C22.5368 13.2632 22.5213 13.292 22.4954 13.3137C22.4695 13.3354 22.4444 13.3405 22.4271 13.3391L22.3997 13.3381L22.262 13.3342H22.2493C21.0672 13.3342 19.9712 14.0587 19.515 15.1467C19.0606 16.2292 19.2988 17.4748 20.096 18.3196L20.263 18.4827C20.2974 18.5138 20.309 18.5616 20.2962 18.6037L20.2757 18.6428L20.2747 18.6438C19.7707 19.2715 19.1936 19.8409 18.5599 20.3381C18.5207 20.3678 18.4726 20.3722 18.4329 20.3528L18.3968 20.3254C17.6458 19.502 16.3703 19.1647 15.2991 19.4993L15.0882 19.5744L15.0872 19.5754C14.017 20.0137 13.305 21.0477 13.2571 22.1946V22.425C13.2583 22.4724 13.2322 22.5131 13.1937 22.5334L13.1517 22.5461V22.5471C12.7636 22.5903 12.3748 22.6116 11.9866 22.6116C11.6798 22.6116 11.3736 22.5981 11.0687 22.5715L10.765 22.5403H10.764C10.7177 22.5349 10.6804 22.5029 10.6663 22.4612L10.6605 22.4172V22.4162C10.7314 21.1649 10.0068 19.9984 8.85089 19.5149H8.85187C7.73848 19.0476 6.32344 19.3728 5.51788 20.2629C5.48551 20.2986 5.43775 20.3106 5.39581 20.2981L5.35577 20.2766C4.81348 19.8401 4.31234 19.3484 3.86554 18.8118L3.67804 18.5793L3.67706 18.5784L3.65656 18.5393C3.64422 18.4976 3.65632 18.4508 3.69073 18.4192L3.68976 18.4182C4.54539 17.6336 4.86479 16.4197 4.51495 15.3293L4.43585 15.1135L4.34113 14.9045C3.83153 13.8928 2.78787 13.2573 1.68683 13.2805L1.60089 13.2649C1.56897 13.2543 1.5357 13.2376 1.50519 13.216C1.47406 13.1941 1.46043 13.1779 1.45538 13.1702V13.1789C1.36546 12.3747 1.36706 11.5622 1.46027 10.7659L1.45929 10.7649C1.46504 10.7207 1.48355 10.698 1.4964 10.6868C1.50205 10.6818 1.51079 10.6744 1.5257 10.6692L1.58917 10.6614H1.6048C2.78772 10.6614 3.86947 10.0581 4.388 9.05882L4.4837 8.85374C4.96796 7.6991 4.66706 6.35866 3.73761 5.51683H3.73663C3.70238 5.48482 3.69175 5.43745 3.70441 5.39574L3.72491 5.35667V5.3557C4.16384 4.80796 4.66177 4.30205 5.20538 3.84984L5.44171 3.65941C5.49097 3.62215 5.55975 3.62828 5.60089 3.6721V3.67308C6.35213 4.4993 7.63371 4.83401 8.7005 4.50121L8.91144 4.42601V4.42503C9.98316 3.98599 10.6938 2.95188 10.7425 1.80492L10.7435 1.57445C10.7422 1.52778 10.7673 1.4865 10.806 1.46605L10.848 1.45335H10.8489ZM12.0179 7.81761C9.69794 7.81761 7.81183 9.70385 7.81183 12.0237C7.81191 14.3435 9.698 16.2297 12.0179 16.2297C14.3376 16.2296 16.2239 14.3434 16.2239 12.0237C16.2239 9.70392 14.3377 7.81771 12.0179 7.81761Z" stroke="black" stroke-linecap="round" stroke-linejoin="round"/>
</svg>
