<svg width="16" height="16" viewBox="0 0 16 16" fill="none" xmlns="http://www.w3.org/2000/svg">
<path d="M15.6933 7.08281C16.267 5.48792 15.9277 4.28102 15.6933 3.87598H14.4907L12.4865 2.67342L11.6848 0.669159H9.6805L9.27965 2.27257L8.07709 3.47513L5.67197 3.87598L4.46941 2.67342L2.46514 4.67769L3.6677 5.88025V7.08281L3.26685 8.68622L0.460876 9.88878L0.86173 12.2939L2.46514 13.0956L3.6677 14.699C5.53759 15.5108 6.47913 15.3794 8.07709 14.699L7.27538 13.0956L6.47367 10.6905L8.07709 7.48366C8.47794 6.68196 10.4822 7.08281 11.6848 7.08281C12.6468 7.08281 13.9563 7.88452 14.4907 8.28537C14.6244 8.5526 15.1088 8.7078 15.6933 7.08281Z" fill="#F7B500"/>
</svg>
