<svg width="30" height="30" viewBox="0 0 30 30" fill="none" xmlns="http://www.w3.org/2000/svg">
<path d="M14.9998 0.765991C22.8607 0.765991 29.234 7.13847 29.2341 14.9994C29.2341 22.8604 22.8608 29.2338 14.9998 29.2338C7.13884 29.2336 0.766357 22.8603 0.766357 14.9994C0.766518 7.13857 7.13894 0.766152 14.9998 0.765991Z" fill="white" stroke="#E5E5E5" stroke-width="0.75"/>
<path d="M14.9998 0.765991C22.8607 0.765991 29.234 7.13847 29.2341 14.9994C29.2341 22.8604 22.8608 29.2338 14.9998 29.2338C7.13884 29.2336 0.766357 22.8603 0.766357 14.9994C0.766518 7.13857 7.13894 0.766152 14.9998 0.765991Z" stroke="#E5E5E5" stroke-width="0.75"/>
<path d="M26.1304 14.3041C26.1304 20.4512 21.8428 26.8258 15.6957 26.8258C9.54849 26.8258 3.86957 21.8425 3.86957 15.6954C3.86957 9.5482 8.15718 3.17363 14.3044 3.17363C20.4515 3.17363 26.1304 8.15689 26.1304 14.3041Z" fill="white"/>
<path d="M19.0058 4.32134C17.7548 3.87107 16.6712 3.6256 15.2652 3.6256C8.73382 3.6256 3.86951 8.46104 3.86951 14.9924C3.86951 21.5238 8.88764 26.2937 15.419 26.2937C21.9504 26.2937 26.3619 21.2943 26.3619 14.7629C26.3619 10.7236 24.3481 7.68208 21.2578 5.54867" stroke="#E5E5E5" stroke-width="0.75" stroke-linecap="round"/>
<path d="M15 7.34726V15.6951H21.9565" stroke="#E5E5E5" stroke-width="0.75" stroke-linecap="round"/>
</svg>
