<svg width="19" height="24" viewBox="0 0 19 24" fill="none" xmlns="http://www.w3.org/2000/svg">
<path d="M15.8386 20.502V21.4488C15.8386 22.3198 15.1158 23.0772 14.2028 23.0772H2.82804C1.91501 23.0772 1.1922 22.3577 1.1922 21.4488V6.83106L3.96932 3.80148" fill="white"/>
<path d="M15.8386 20.502V21.4488C15.8386 22.3198 15.1158 23.0772 14.2028 23.0772H2.82804C1.91501 23.0772 1.1922 22.3577 1.1922 21.4488V6.83106L3.96932 3.80148" stroke="black" stroke-width="0.75" stroke-miterlimit="10" stroke-linecap="round"/>
<path d="M17.8547 12.0948V18.722C17.8547 19.593 17.1319 20.3504 16.2188 20.3504H4.84409C3.93106 20.3504 3.20825 19.6308 3.20825 18.722V4.10425L5.98537 1.07467L16.2188 0.923187C17.1319 0.923187 17.8547 1.64271 17.8547 2.55159V8.68649" fill="white"/>
<path d="M17.8547 12.0948V18.722C17.8547 19.593 17.1319 20.3504 16.2188 20.3504H4.84409C3.93106 20.3504 3.20825 19.6308 3.20825 18.722V4.10425L5.98537 1.07467L16.2188 0.923187C17.1319 0.923187 17.8547 1.64271 17.8547 2.55159V8.68649" stroke="black" stroke-width="0.75" stroke-miterlimit="10" stroke-linecap="round"/>
<path d="M6.02341 4.06635V1.03677L3.20825 4.06635H6.02341Z" fill="white" stroke="black" stroke-width="0.75" stroke-miterlimit="10" stroke-linecap="round" stroke-linejoin="round"/>
<path d="M6.51794 16.4499L15.2678 16.4499" stroke="black" stroke-width="0.75" stroke-miterlimit="10" stroke-linecap="round" stroke-linejoin="round"/>
<path d="M6.51794 13.799L15.2678 13.799" stroke="black" stroke-width="0.75" stroke-miterlimit="10" stroke-linecap="round" stroke-linejoin="round"/>
<path d="M6.51794 11.148L15.2678 11.148" stroke="black" stroke-width="0.75" stroke-miterlimit="10" stroke-linecap="round" stroke-linejoin="round"/>
<path d="M6.51794 8.4971L15.2678 8.4971" stroke="black" stroke-width="0.75" stroke-miterlimit="10" stroke-linecap="round" stroke-linejoin="round"/>
<path d="M6.51794 5.84644L15.2678 5.84644" stroke="black" stroke-width="0.75" stroke-miterlimit="10" stroke-linecap="round" stroke-linejoin="round"/>
</svg>
