<svg width="16" height="21" viewBox="0 0 16 21" fill="none" xmlns="http://www.w3.org/2000/svg">
<path d="M7.96716 9.55838C2.83224 9.55838 -0.248706 14.557 0.721222 16.9401C2.14759 20.4857 13.7297 20.3113 15.0419 16.9401C15.6125 15.487 13.8438 12.2902 12.5886 10.8371" fill="white"/>
<path d="M7.96716 9.55838C2.83224 9.55838 -0.248706 14.557 0.721222 16.9401C2.14759 20.4857 13.7297 20.3113 15.0419 16.9401C15.6125 15.487 13.8438 12.2902 12.5886 10.8371" stroke="black" stroke-miterlimit="10" stroke-linecap="round"/>
<path d="M7.9103 9.50027C10.179 9.50027 12.0182 7.62662 12.0182 5.31535C12.0182 3.00408 10.179 1.13043 7.9103 1.13043C5.64155 1.13043 3.80237 3.00408 3.80237 5.31535C3.80237 7.62662 5.64155 9.50027 7.9103 9.50027Z" fill="white" stroke="black" stroke-miterlimit="10" stroke-linecap="round"/>
<path d="M7.96716 9.55823C2.83224 9.55823 -0.248706 14.5569 0.721222 16.94C2.14759 20.4855 13.7297 20.3111 15.0419 16.94C15.6125 15.4869 13.8438 12.2901 12.5886 10.837" stroke="black" stroke-miterlimit="10" stroke-linecap="round"/>
<path d="M7.91024 9.50027C10.179 9.50027 12.0182 7.62662 12.0182 5.31535C12.0182 3.00408 10.179 1.13043 7.91024 1.13043C5.64149 1.13043 3.80231 3.00408 3.80231 5.31535C3.80231 7.62662 5.64149 9.50027 7.91024 9.50027Z" stroke="black" stroke-miterlimit="10" stroke-linecap="round"/>
</svg>
