<svg width="73" height="72" viewBox="0 0 73 72" fill="none" xmlns="http://www.w3.org/2000/svg">
<rect x="0.5" width="72" height="72" rx="8" fill="#3C4949"/>
<g clip-path="url(#clip0_4_289)">
<path d="M44.8998 34.3199V20.8799H28.0998V27.5999H21.3798V51.1199H34.8198V44.3998H38.1798V51.1199H51.6198V34.3199H44.8998ZM28.0998 47.7598H24.7398V44.3998H28.0998V47.7598ZM28.0998 41.0399H24.7398V37.6799H28.0998V41.0399ZM28.0998 34.3199H24.7398V30.9599H28.0998V34.3199ZM34.8198 41.0399H31.4598V37.6799H34.8198V41.0399ZM34.8198 34.3199H31.4598V30.9599H34.8198V34.3199ZM34.8198 27.5999H31.4598V24.2399H34.8198V27.5999ZM41.5398 41.0399H38.1798V37.6799H41.5398V41.0399ZM41.5398 34.3199H38.1798V30.9599H41.5398V34.3199ZM41.5398 27.5999H38.1798V24.2399H41.5398V27.5999ZM48.2598 47.7598H44.8998V44.3998H48.2598V47.7598ZM48.2598 41.0399H44.8998V37.6799H48.2598V41.0399Z" fill="#FBB03B"/>
</g>
<defs>
<clipPath id="clip0_4_289">
<rect width="40.32" height="40.32" fill="white" transform="translate(16.3398 15.8398)"/>
</clipPath>
</defs>
</svg>
