<svg width="66" height="36" viewBox="0 0 66 36" fill="none" xmlns="http://www.w3.org/2000/svg">
<g clip-path="url(#clip0_4_280)">
<rect width="66" height="36" fill="white"/>
<path d="M57.3155 5.38344C57.677 6.70697 57.678 8.04414 57.3788 9.28895C57.2204 9.9473 56.9782 10.5841 56.6566 11.1756C56.331 11.7795 55.9306 12.3406 55.4575 12.8398C54.796 12.6495 54.1675 12.3757 53.5808 12.0233C53.0062 11.6749 52.4753 11.2549 52.0012 10.7709C51.115 9.85275 50.4366 8.70225 50.0751 7.37872C49.7136 6.0552 49.7126 4.71802 50.0117 3.47321C50.1701 2.81486 50.4124 2.17809 50.7339 1.58654C51.0586 0.979226 51.46 0.421551 51.9321 -0.0811163C52.5935 0.109163 53.2221 0.383022 53.8088 0.735438C54.3834 1.08378 54.9143 1.50375 55.3884 1.98781C56.2756 2.90941 56.954 4.05991 57.3155 5.38344Z" fill="#78A037"/>
<path d="M65.8167 2.7138C65.9657 3.4481 66.0149 4.19862 65.9692 4.94172C65.9241 5.67347 65.7883 6.40031 65.5563 7.10145C65.1192 8.4255 64.353 9.66116 63.259 10.6776C62.1651 11.694 60.8796 12.3643 59.5292 12.702C58.8155 12.8797 58.0797 12.9627 57.3521 12.9541C57.2329 12.9533 57.1128 12.9491 56.9917 12.9414L58.5394 9.28106L55.5004 13.0276C54.9913 12.2351 54.947 11.1368 54.9912 10.4016C55.0364 9.66988 55.1721 8.94304 55.4041 8.2419C55.8412 6.91785 56.6074 5.68219 57.7014 4.66577C58.7953 3.64934 60.0808 2.97908 61.4312 2.64131C62.1449 2.46369 62.8807 2.38061 63.6083 2.38929C64.355 2.40014 65.0987 2.50872 65.8167 2.7138Z" fill="#8CC63F"/>
<path d="M6.79126 27.0552L0 14.9169H5.75066L9.50229 22.1231L13.1444 14.9169H18.8403L7.55802 35.9876H1.99904L6.79126 27.0552Z" fill="#1C1C1C"/>
<path d="M23.0604 21.9039C23.0604 22.3606 23.1426 22.7899 23.3069 23.1917C23.4712 23.5753 23.6903 23.9133 23.9641 24.2056C24.2562 24.4978 24.5939 24.7262 24.9773 24.8906C25.3789 25.055 25.808 25.1372 26.2644 25.1372C26.7025 25.1372 27.1133 25.055 27.4966 24.8906C27.8983 24.7262 28.236 24.4978 28.5099 24.2056C28.802 23.9133 29.0302 23.5753 29.1945 23.1917C29.377 22.8081 29.4683 22.3971 29.4683 21.9587C29.4683 21.5203 29.377 21.1093 29.1945 20.7257C29.0302 20.3239 28.802 19.9768 28.5099 19.6845C28.236 19.3923 27.8983 19.1639 27.4966 18.9995C27.1133 18.8351 26.7025 18.7529 26.2644 18.7529C25.808 18.7529 25.3789 18.8351 24.9773 18.9995C24.5939 19.1639 24.2562 19.3923 23.9641 19.6845C23.6903 19.9768 23.4712 20.3147 23.3069 20.6983C23.1426 21.0637 23.0604 21.4655 23.0604 21.9039ZM29.304 14.9169H34.2879V28.9732H29.304V27.4114C28.2451 28.7448 26.812 29.4116 25.0047 29.4116C23.9823 29.4116 23.0422 29.2289 22.1841 28.8636C21.3261 28.48 20.5776 27.9502 19.9386 27.2744C19.2997 26.5985 18.7976 25.8039 18.4325 24.8906C18.0856 23.9772 17.9122 22.9817 17.9122 21.9039C17.9122 20.8993 18.0856 19.9494 18.4325 19.0543C18.7794 18.141 19.2632 17.3464 19.8839 16.6705C20.5046 15.9947 21.2439 15.4649 22.102 15.0813C22.96 14.6794 23.9093 14.4785 24.9499 14.4785C26.7025 14.4785 28.1539 15.0905 29.304 16.3143V14.9169Z" fill="#1C1C1C"/>
<path d="M47.4918 21.9861C47.4918 21.5477 47.4096 21.1367 47.2453 20.7531C47.0992 20.3513 46.8802 20.0042 46.5881 19.7119C46.296 19.4197 45.9491 19.1913 45.5475 19.0269C45.1641 18.8443 44.7442 18.7529 44.2878 18.7529C43.8497 18.7529 43.4389 18.8351 43.0555 18.9995C42.6721 19.1639 42.3344 19.3923 42.0423 19.6845C41.7685 19.9768 41.5403 20.3239 41.3577 20.7257C41.1934 21.1093 41.1113 21.5203 41.1113 21.9587C41.1113 22.3971 41.1934 22.8081 41.3577 23.1917C41.522 23.5753 41.7502 23.9133 42.0423 24.2056C42.3344 24.4796 42.6721 24.7079 43.0555 24.8906C43.4572 25.055 43.877 25.1372 44.3152 25.1372C44.7533 25.1372 45.1641 25.055 45.5475 24.8906C45.9309 24.7262 46.2595 24.4978 46.5333 24.2056C46.8254 23.9133 47.0536 23.5753 47.2179 23.1917C47.4005 22.8081 47.4918 22.4063 47.4918 21.9861ZM41.2482 35.9876H36.2916V14.9169H41.2482V16.4787C42.307 15.1453 43.7493 14.4785 45.5749 14.4785C46.5789 14.4785 47.51 14.6794 48.368 15.0813C49.2443 15.4649 50.002 15.9947 50.6409 16.6705C51.2799 17.3464 51.7728 18.141 52.1197 19.0543C52.4848 19.9677 52.6673 20.9449 52.6673 21.9861C52.6673 23.0273 52.4848 23.9955 52.1197 24.8906C51.7728 25.7856 51.2799 26.5711 50.6409 27.247C50.0202 27.9228 49.2808 28.4526 48.4228 28.8362C47.5648 29.2198 46.6337 29.4116 45.6296 29.4116C43.877 29.4116 42.4166 28.8088 41.2482 27.6032V35.9876Z" fill="#1C1C1C"/>
<path d="M59.0799 14.9169V28.9732H54.1234V14.9169H59.0799Z" fill="#1C1C1C"/>
</g>
<defs>
<clipPath id="clip0_4_280">
<rect width="66" height="36" fill="white"/>
</clipPath>
</defs>
</svg>
