<svg width="18" height="20" viewBox="0 0 18 20" fill="none" xmlns="http://www.w3.org/2000/svg">
<path d="M0.717346 2.99135C0.717346 1.67547 1.78408 0.608734 3.09996 0.608734V19.3913C1.78408 19.3913 0.717346 18.3246 0.717346 17.0087V2.99135Z" fill="white"/>
<path d="M0.699951 17.0879V2.80014C0.699951 1.69557 1.59538 0.80014 2.69995 0.80014H2.90865H7.89995C9.00452 0.80014 9.89995 1.69557 9.89995 2.80014V17.0879C9.89995 18.1925 9.00452 19.0879 7.89995 19.0879H2.90865H2.69995C1.59538 19.0879 0.699951 18.1925 0.699951 17.0879Z" fill="white"/>
<path d="M10.0613 4.38209V2.60874C10.0613 1.50417 9.16585 0.608734 8.06128 0.608734H3.3261M10.0613 15.7026V17.2965C10.0613 18.4011 9.16585 19.2965 8.06128 19.2965H3.3261M3.3261 0.608734H2.71741C1.61284 0.608734 0.717407 1.50416 0.717407 2.60873V17.2965C0.717407 18.4011 1.61284 19.2965 2.71741 19.2965H3.3261M3.3261 0.608734V19.2965" stroke="black" stroke-linecap="round"/>
<path d="M6.94666 11.829V8.07616C6.94666 7.9657 7.0362 7.87616 7.14666 7.87616H12.337C12.4475 7.87616 12.537 7.78662 12.537 7.67616V6.23774C12.537 6.06635 12.7385 5.97435 12.868 6.0866L17.1543 9.80144C17.2464 9.88119 17.2464 10.024 17.1543 10.1037L12.868 13.8186C12.7385 13.9308 12.537 13.8388 12.537 13.6674V12.229C12.537 12.1185 12.4475 12.029 12.337 12.029H7.14666C7.0362 12.029 6.94666 11.9394 6.94666 11.829Z" fill="white" stroke="black"/>
</svg>
