<svg width="26" height="26" viewBox="0 0 26 26" fill="none" xmlns="http://www.w3.org/2000/svg">
<mask id="path-1-inside-1_4_36" fill="white">
<path d="M12.9998 0.200012C20.069 0.200012 25.7995 5.93066 25.7996 12.9998C25.7996 20.0691 20.0691 25.7996 12.9998 25.7996C5.93066 25.7995 0.200012 20.069 0.200012 12.9998C0.200117 5.93073 5.93073 0.200117 12.9998 0.200012ZM11.9334 11.9334V20.4666H14.0662V11.9334H11.9334ZM12.9998 5.53302C12.4108 5.53313 11.9334 6.01136 11.9334 6.6004C11.9336 7.18926 12.4109 7.6667 12.9998 7.66681C13.5888 7.66681 14.066 7.18933 14.0662 6.6004C14.0662 6.0113 13.5889 5.53302 12.9998 5.53302Z"/>
</mask>
<path d="M12.9998 0.200012C20.069 0.200012 25.7995 5.93066 25.7996 12.9998C25.7996 20.0691 20.0691 25.7996 12.9998 25.7996C5.93066 25.7995 0.200012 20.069 0.200012 12.9998C0.200117 5.93073 5.93073 0.200117 12.9998 0.200012ZM11.9334 11.9334V20.4666H14.0662V11.9334H11.9334ZM12.9998 5.53302C12.4108 5.53313 11.9334 6.01136 11.9334 6.6004C11.9336 7.18926 12.4109 7.6667 12.9998 7.66681C13.5888 7.66681 14.066 7.18933 14.0662 6.6004C14.0662 6.0113 13.5889 5.53302 12.9998 5.53302Z" fill="#F7B500"/>
<path d="M12.9998 0.200012V-1.29999H12.9998L12.9998 0.200012ZM25.7996 12.9998H27.2996V12.9998L25.7996 12.9998ZM12.9998 25.7996L12.9998 27.2996H12.9998V25.7996ZM0.200012 12.9998L-1.29999 12.9998V12.9998H0.200012ZM11.9334 11.9334V10.4334H10.4334V11.9334H11.9334ZM11.9334 20.4666H10.4334V21.9666H11.9334V20.4666ZM14.0662 20.4666V21.9666H15.5662V20.4666H14.0662ZM14.0662 11.9334H15.5662V10.4334H14.0662V11.9334ZM12.9998 5.53302V4.03302H12.9995L12.9998 5.53302ZM11.9334 6.6004H10.4334V6.60094L11.9334 6.6004ZM12.9998 7.66681L12.9995 9.16681H12.9998V7.66681ZM14.0662 6.6004L15.5662 6.60094V6.6004H14.0662ZM12.9998 0.200012V1.70001C19.2405 1.70001 24.2995 6.75907 24.2996 12.9998L25.7996 12.9998L27.2996 12.9998C27.2995 5.10225 20.8974 -1.29999 12.9998 -1.29999V0.200012ZM25.7996 12.9998H24.2996C24.2996 19.2406 19.2406 24.2996 12.9998 24.2996V25.7996V27.2996C20.8975 27.2996 27.2996 20.8975 27.2996 12.9998H25.7996ZM12.9998 25.7996L12.9998 24.2996C6.75907 24.2995 1.70001 19.2405 1.70001 12.9998H0.200012H-1.29999C-1.29999 20.8974 5.10225 27.2995 12.9998 27.2996L12.9998 25.7996ZM0.200012 12.9998L1.70001 12.9998C1.70011 6.75916 6.75916 1.70011 12.9998 1.70001L12.9998 0.200012L12.9998 -1.29999C5.10229 -1.29987 -1.29987 5.10229 -1.29999 12.9998L0.200012 12.9998ZM11.9334 11.9334H10.4334V20.4666H11.9334H13.4334V11.9334H11.9334ZM11.9334 20.4666V21.9666H14.0662V20.4666V18.9666H11.9334V20.4666ZM14.0662 20.4666H15.5662V11.9334H14.0662H12.5662V20.4666H14.0662ZM14.0662 11.9334V10.4334H11.9334V11.9334V13.4334H14.0662V11.9334ZM12.9998 5.53302L12.9995 4.03302C11.5808 4.03328 10.4334 5.18446 10.4334 6.6004H11.9334H13.4334C13.4334 6.83827 13.2408 7.03298 13.0001 7.03302L12.9998 5.53302ZM11.9334 6.6004L10.4334 6.60094C10.4339 8.01754 11.5822 9.16655 12.9995 9.16681L12.9998 7.66681L13.0001 6.16681C13.2397 6.16685 13.4333 6.36098 13.4334 6.59987L11.9334 6.6004ZM12.9998 7.66681V9.16681C14.4178 9.16681 15.5657 8.01734 15.5662 6.60094L14.0662 6.6004L12.5662 6.59987C12.5663 6.36132 12.7598 6.16681 12.9998 6.16681V7.66681ZM14.0662 6.6004H15.5662C15.5662 5.18466 14.4191 4.03302 12.9998 4.03302V5.53302V7.03302C12.7587 7.03302 12.5662 6.83794 12.5662 6.6004H14.0662Z" fill="black" mask="url(#path-1-inside-1_4_36)"/>
</svg>
